<?xml version="1.0" encoding="UTF-8"?>
<svg id="Layer_1" xmlns="http://www.w3.org/2000/svg" version="1.1" viewBox="0 0 32 32">
  <!-- Generator: Adobe Illustrator 29.6.1, SVG Export Plug-In . SVG Version: 2.1.1 Build 9)  -->
  <defs>
    <style>
      .st0 {
        fill: #73d0ef;
      }
    </style>
  </defs>
  <path class="st0" d="M7.04,7.01c3.5-3.51,8.82-4.82,13.52-3.02,1.65.63,3.04,1.64,4.36,2.79.12.02.18,0,.28-.07.13-.08,1.03-1.05,1.07-1.18s.03-.24-.05-.34C19.82-.96,9.67.01,4.32,6.99c-7.24,9.45-.74,23.37,11.13,23.88,10.62.46,18.08-10.61,14.24-20.4-.07-.19-.32-.84-.42-.95-.17-.17-.49.14-.65.26-.12.1-.92.89-.94.96.99,2.61,1.29,5.33.66,8.08-1.84,8.01-10.83,12.49-18.23,8.49C2.63,23.27.97,13.1,7.04,7.01ZM29.2,3.99c-.4.08-1.19,1.05-1.49,1.38-1.58,1.8-3.14,3.78-4.66,5.64-.74.91-1.47,2.03-2.25,2.87-.14.15-.34.45-.56.35-.42-.19-1.15-1.11-1.59-1.21-1.05-.24-2.03.77-1.48,1.76.25.45,1.78,1.93,2.24,2.25.79.56,1.46.67,2.24,0,2.33-2.96,4.76-5.86,7.03-8.87.41-.55,1.88-2.35,1.93-2.91.07-.73-.71-1.42-1.42-1.27ZM15.7,10.98h4.59c.12-.11.16-.23.18-.38.04-.35.05-2.31-.03-2.56-.03-.08-.08-.15-.14-.21h-12.05l-.11.11v2.87s.16.18.18.18h4.24v14.47s.11.12.14.14c.16.08,2.3.07,2.63.04.13-.01.25-.04.38-.07v-14.57ZM21.02,25.48v-6.69c-.21-.12-.67-.16-.94-.18-.66-.04-1.35.03-2,.14v6.62c0,.17.65.24.8.25.28.02,2.05,0,2.14-.14Z"/>
  <path class="st0" d="M7.04,7.01C.97,13.1,2.63,23.27,10.12,27.31c7.4,4,16.39-.47,18.23-8.49.63-2.75.33-5.47-.66-8.08.02-.07.81-.86.94-.96.15-.12.48-.44.65-.26.1.11.35.76.42.95,3.84,9.79-3.62,20.86-14.24,20.4C3.58,30.36-2.92,16.44,4.32,6.99,9.67.01,19.82-.96,26.21,5.19c.08.1.09.22.05.34s-.94,1.1-1.07,1.18c-.1.06-.16.09-.28.07-1.32-1.15-2.72-2.16-4.36-2.79-4.7-1.8-10.01-.49-13.52,3.02Z"/>
  <path class="st0" d="M15.7,10.98v14.57c-.13.03-.25.06-.38.07-.33.03-2.47.04-2.63-.04-.03-.02-.14-.13-.14-.14v-14.47h-4.24s-.18-.16-.18-.18v-2.87l.11-.11h12.05c.06.06.12.12.14.21.08.26.07,2.21.03,2.56-.02.16-.05.28-.18.38h-4.59Z"/>
  <path class="st0" d="M29.2,3.99c.71-.14,1.48.54,1.42,1.27-.05.55-1.52,2.36-1.93,2.91-2.27,3.01-4.7,5.91-7.03,8.87-.78.66-1.45.55-2.24,0-.45-.32-1.99-1.8-2.24-2.25-.55-.99.43-2,1.48-1.76.44.1,1.18,1.03,1.59,1.21.22.1.42-.2.56-.35.77-.84,1.51-1.96,2.25-2.87,1.52-1.87,3.08-3.84,4.66-5.64.3-.34,1.09-1.3,1.49-1.38Z"/>
  <path class="st0" d="M21.02,25.48c-.09.15-1.86.16-2.14.14-.15-.01-.8-.08-.8-.25v-6.62c.65-.12,1.34-.18,2-.14.27.02.74.06.94.18v6.69Z"/>
</svg>